<svg xmlns="http://www.w3.org/2000/svg" width="1866" height="300" viewBox="0 0 1866 300"><g fill="none" fill-rule="evenodd"><rect width="409" height="300" fill="#000" rx="30"/><path fill="#FFF" d="M70 157.8a90.8 90.8 0 0 0 0 12c.4 10.6 3 18.3 8.1 23a27 27 0 0 0 19.2 7c6 0 11-1.2 15.2-3.8 4.1-2.5 7.4-7 9.8-13.5.5-1.4 1-2.3 1.5-2.8.4-.5 1.3-.8 2.5-.8h2.4c1 0 2 .4 2.7 1a3 3 0 0 1 1 2.8c0 3-.8 6.1-2.2 9.3-1.5 3.2-3.6 6.1-6.5 8.8a33 33 0 0 1-10.9 6.4 44.1 44.1 0 0 1-15.5 2.5c-12 0-21.2-3.5-27.6-10.4-6.3-6.9-9.7-16.5-10-28.7a107.2 107.2 0 0 1 0-13.6 42.7 42.7 0 0 1 10-28.7c6.4-7 15.5-10.4 27.6-10.4 6 0 11.2.8 15.5 2.5a33 33 0 0 1 10.9 6.4 26.8 26.8 0 0 1 8.7 18.1 3 3 0 0 1-1 2.8 4 4 0 0 1-2.7 1h-2.4c-1.2 0-2-.3-2.5-.8s-1-1.4-1.5-2.8c-2.4-6.5-5.7-11-9.8-13.5a28.5 28.5 0 0 0-15.2-3.8 27 27 0 0 0-19.2 7c-5 4.7-7.7 12.4-8 23zm153.4 26.6c0-2.4-.5-4.4-1.4-6-1-1.6-2.6-3-4.8-4.3a39.5 39.5 0 0 0-8.8-3.6l-13.6-3.5a63.8 63.8 0 0 1-13.2-4.3c-3.4-1.6-6-3.5-8-5.6-2-2.1-3.2-4.4-4-6.8-.6-2.5-1-5-1-7.8a22.5 22.5 0 0 1 7.6-16.7c2.6-2.3 5.7-4.2 9.5-5.7s8.3-2.2 13.4-2.2c5.5 0 10.3.7 14.2 2.2a34 34 0 0 1 9.6 5.3c2.5 2 4.3 4 5.5 6.2 1.2 2 1.9 3.8 2 5a3 3 0 0 1-1 2.7 4 4 0 0 1-2.8 1h-2.5c-1.6 0-2.9-.7-3.8-2.2-.9-1.3-1.8-2.6-2.9-3.9-1-1.2-2.3-2.3-3.9-3.3-1.5-1-3.5-1.7-5.8-2.3-2.3-.6-5.2-.8-8.6-.8-6.8 0-11.9 1.3-15.1 4.1-3.3 2.8-5 6.3-5 10.7 0 1.9.4 3.6 1 5 .7 1.5 2 3 4 4.2 1.9 1.3 4.5 2.5 7.9 3.7 3.3 1.1 7.7 2.3 13.1 3.5 5.5 1.3 10 2.7 13.7 4.3a31 31 0 0 1 8.9 5.4c2.2 2 3.8 4.4 4.7 7a24.8 24.8 0 0 1-.7 18.4c-1.5 3-3.7 5.7-6.5 8a32 32 0 0 1-10.5 5.6c-4.2 1.3-9.1 2-14.7 2-6 0-11-.8-15.3-2.4a38.7 38.7 0 0 1-10.3-5.6 24.5 24.5 0 0 1-6-6.5c-1.4-2.2-2-4-2.2-5-.1-1.3.3-2.2 1.2-2.9 1-.6 1.8-.9 2.5-.9h2.6c.7 0 1.3.1 1.8.3.5.3 1.1.9 2 2 1 1.4 2.1 2.8 3.5 4.2a21 21 0 0 0 4.9 3.5c1.8 1 4 1.9 6.5 2.5 2.5.6 5.4 1 8.8 1 6.8 0 12.4-1.4 16.9-4 4.4-2.6 6.6-6.4 6.6-11.5zm100.6 0c0-2.4-.4-4.4-1.4-6-1-1.6-2.6-3-4.8-4.3a39.5 39.5 0 0 0-8.8-3.6l-13.5-3.5a63.8 63.8 0 0 1-13.3-4.3c-3.4-1.6-6-3.5-8-5.6-1.9-2.1-3.2-4.4-3.9-6.8-.7-2.5-1-5-1-7.8a22.5 22.5 0 0 1 7.6-16.7c2.5-2.3 5.7-4.2 9.5-5.7s8.2-2.2 13.3-2.2c5.6 0 10.3.7 14.2 2.2a34 34 0 0 1 9.6 5.3c2.5 2 4.4 4 5.6 6.2 1.1 2 1.8 3.8 2 5a3 3 0 0 1-1.1 2.7 4 4 0 0 1-2.7 1h-2.6c-1.6 0-2.8-.7-3.7-2.2l-3-3.9c-1-1.2-2.2-2.3-3.8-3.3-1.6-1-3.6-1.7-5.9-2.3-2.3-.6-5.2-.8-8.6-.8-6.8 0-11.8 1.3-15.1 4.1-3.3 2.8-5 6.3-5 10.7 0 1.9.4 3.6 1 5 .8 1.5 2 3 4 4.2 2 1.3 4.6 2.5 7.9 3.7 3.3 1.1 7.7 2.3 13.2 3.5 5.4 1.3 10 2.7 13.7 4.3a31 31 0 0 1 8.8 5.4c2.2 2 3.8 4.4 4.8 7a24.8 24.8 0 0 1-.8 18.4c-1.5 3-3.6 5.7-6.5 8a32 32 0 0 1-10.5 5.6c-4.2 1.3-9 2-14.6 2-6 0-11.1-.8-15.3-2.4a38.7 38.7 0 0 1-10.4-5.6 24.5 24.5 0 0 1-6-6.5c-1.3-2.2-2-4-2.1-5-.2-1.3.2-2.2 1.1-2.9 1-.6 1.8-.9 2.6-.9h2.5c.7 0 1.3.1 1.8.3.5.3 1.2.9 2 2 1 1.4 2.2 2.8 3.6 4.2a21 21 0 0 0 4.8 3.5c1.9 1 4 1.9 6.5 2.5 2.5.6 5.5 1 8.9 1 6.8 0 12.4-1.4 16.8-4s6.6-6.4 6.6-11.5z"/><path fill="#000" d="M544.3 184.4c0-2.4-.5-4.4-1.5-6-1-1.6-2.5-3-4.7-4.3a39.5 39.5 0 0 0-8.9-3.6l-13.5-3.5a63.8 63.8 0 0 1-13.2-4.3c-3.4-1.6-6.1-3.5-8-5.6-2-2.1-3.3-4.4-4-6.8-.6-2.5-1-5-1-7.8a22.5 22.5 0 0 1 7.6-16.7c2.6-2.3 5.7-4.2 9.5-5.7S515 118 520 118c5.5 0 10.3.7 14.2 2.2a34 34 0 0 1 9.6 5.3c2.5 2 4.3 4 5.5 6.2 1.2 2 1.8 3.8 2 5a3 3 0 0 1-1 2.7 4 4 0 0 1-2.8 1H545c-1.6 0-2.9-.7-3.8-2.2-.9-1.3-1.8-2.6-2.9-3.9-1-1.2-2.3-2.3-3.9-3.3s-3.5-1.7-5.8-2.3c-2.4-.6-5.2-.8-8.6-.8-6.8 0-11.9 1.3-15.2 4.1-3.2 2.8-4.9 6.3-4.9 10.7 0 1.9.3 3.6 1 5 .7 1.5 2 3 4 4.2 1.9 1.3 4.5 2.5 7.8 3.7 3.4 1.1 7.8 2.3 13.2 3.5 5.5 1.3 10 2.7 13.7 4.3a31 31 0 0 1 8.8 5.4c2.3 2 3.8 4.4 4.8 7a24.8 24.8 0 0 1-.8 18.4c-1.4 3-3.6 5.7-6.4 8a32 32 0 0 1-10.6 5.6c-4.2 1.3-9 2-14.6 2-6 0-11-.8-15.3-2.4a38.7 38.7 0 0 1-10.4-5.6 24.5 24.5 0 0 1-6-6.5c-1.3-2.2-2-4-2.1-5-.1-1.3.3-2.2 1.2-2.9.9-.6 1.7-.9 2.5-.9h2.6c.7 0 1.3.1 1.8.3.5.3 1.1.9 2 2 1 1.4 2.1 2.8 3.5 4.2a21 21 0 0 0 4.8 3.5c2 1 4 1.9 6.6 2.5 2.5.6 5.4 1 8.8 1 6.8 0 12.4-1.4 16.9-4 4.4-2.6 6.6-6.4 6.6-11.5zm55.4-26.6a90.8 90.8 0 0 0 0 12c.3 10.6 3 18.3 8 23a27 27 0 0 0 19.2 7c6 0 11-1.2 15.2-3.8 4.2-2.5 7.4-7 9.8-13.5.6-1.4 1-2.3 1.5-2.8s1.3-.8 2.6-.8h2.4c1 0 1.9.4 2.7 1a3 3 0 0 1 1 2.8 26.8 26.8 0 0 1-8.8 18.1 33 33 0 0 1-10.8 6.4 44.1 44.1 0 0 1-15.6 2.5c-12 0-21.2-3.5-27.5-10.4-6.4-6.9-9.7-16.5-10-28.7a107.2 107.2 0 0 1 0-13.6 42.7 42.7 0 0 1 10-28.7c6.3-7 15.5-10.4 27.5-10.4 6 0 11.2.8 15.6 2.5a33 33 0 0 1 10.8 6.4 26.8 26.8 0 0 1 8.8 18.1 3 3 0 0 1-1 2.8 4 4 0 0 1-2.8 1H656c-1.3 0-2.1-.3-2.6-.8-.4-.5-1-1.4-1.5-2.8-2.4-6.5-5.6-11-9.8-13.5a28.5 28.5 0 0 0-15.2-3.8 27 27 0 0 0-19.1 7c-5 4.7-7.8 12.4-8.1 23zm112.2-26.5c4-7.8 11.8-11.7 23.1-11.7h6.3c2.5 0 3.8 1.2 3.8 3.7v2.4c0 2.5-1.3 3.8-3.8 3.8H734c-6.8 0-12.2 2-16.1 6-4 3.9-6 9.3-6 16v52.8c0 1-.4 2-1.1 2.7a4 4 0 0 1-2.8 1h-2.7c-2.5 0-3.8-1.2-3.8-3.7v-80.8c0-1.1.4-2 1-2.8.7-.7 1.6-1.1 2.8-1.1h2.7a3.8 3.8 0 0 1 3.9 4v7.7zm97.4-13.4c6.1 0 11.5 1 16.2 3a32.7 32.7 0 0 1 18.7 20.5 53.5 53.5 0 0 1 3 18.5 86.2 86.2 0 0 1-.2 11 53.5 53.5 0 0 1-2.8 15.3 32.7 32.7 0 0 1-18.8 20.5c-4.6 2-10 3-16 3-6.2 0-11.6-1-16.2-3a32.7 32.7 0 0 1-19-20.5 48.2 48.2 0 0 1-2.7-18.4 92 92 0 0 1 0-11.1c.2-5.5 1-10.6 2.8-15.3a32.7 32.7 0 0 1 18.9-20.5c4.6-2 10-3 16.1-3zm27.4 39.6c-.4-9.7-3-17.1-8-22.2a26 26 0 0 0-19.4-7.5 26 26 0 0 0-19.4 7.5c-5 5-7.6 12.5-8 22.2a97.1 97.1 0 0 0 0 12.6c.4 9.7 3 17.1 8 22.2a26 26 0 0 0 19.4 7.5 26 26 0 0 0 19.4-7.5c5-5 7.6-12.5 8-22.2a97.1 97.1 0 0 0 0-12.6zm61.3 46.8c0 2.5-1.2 3.7-3.7 3.7h-2.9c-2.5 0-3.7-1.2-3.7-3.7V91c0-2.5 1.2-3.7 3.7-3.7h3c2.4 0 3.6 1.2 3.6 3.7v113.3zm55.3 0c0 2.5-1.2 3.7-3.7 3.7h-3c-2.4 0-3.7-1.2-3.7-3.7V91c0-2.5 1.3-3.7 3.8-3.7h2.9c2.5 0 3.7 1.2 3.7 3.7v113.3zm47.3-42.4c-2.5 0-3.8-1.2-3.8-3.7v-2.4c0-2.5 1.3-3.7 3.8-3.7h50.1c2.5 0 3.8 1.2 3.8 3.7v2.4c0 2.5-1.3 3.7-3.8 3.7h-50.1zm136.3-44c6.6 0 12.2 1.2 16.7 3.7a32 32 0 0 1 11.2 9.5c2.8 3.9 4.9 8.3 6.2 13.2a69.3 69.3 0 0 1 2.3 24.3c-.2 5-1 9.9-2.3 14.8a39.7 39.7 0 0 1-6.2 13.1 32 32 0 0 1-27.9 13.2c-7.1 0-13-1.3-17.5-3.8a34.4 34.4 0 0 1-11-9.6v8c0 2.5-1.3 3.7-3.8 3.7h-2.9c-2.5 0-3.7-1.2-3.7-3.7V91c0-2.5 1.2-3.7 3.7-3.7h2.9c2.5 0 3.7 1.2 3.7 3.7v40.3c2.9-3.7 6.6-6.9 11-9.5 4.6-2.6 10.5-3.9 17.6-3.9zm-28.6 52c.2 3.5.7 7 1.8 10.6 1.1 3.5 2.7 6.7 5 9.6 2.2 2.9 5 5.2 8.4 7a26 26 0 0 0 12.4 2.7c5 0 9.1-.8 12.5-2.5 3.3-1.7 6-4 8.1-6.9a29 29 0 0 0 4.6-10 61.9 61.9 0 0 0 1.8-21.4c-.2-4-.8-8-1.8-11.7-1-3.7-2.5-7-4.6-10a23.3 23.3 0 0 0-8.1-7 26.7 26.7 0 0 0-12.5-2.5 26.4 26.4 0 0 0-20.8 9.3c-2.2 2.7-3.9 5.8-5 9.3-1 3.4-1.6 6.9-1.8 10.3a103.8 103.8 0 0 0 0 13.2zM1209 157c.4-5.8 1.6-11 3.5-15.9 1.8-4.8 4.3-9 7.4-12.3a33 33 0 0 1 11.3-8 37 37 0 0 1 15-2.9c12 0 21.1 3.9 27.7 11.6a48.3 48.3 0 0 1 9.9 32.3v2.5c0 1.1-.4 2-1.1 2.7a4 4 0 0 1-2.8 1h-60.6v1.8a36.1 36.1 0 0 0 7.5 20.8c2.3 2.8 5 5 8.4 6.7 3.2 1.7 7 2.5 11 2.5a30.1 30.1 0 0 0 21.2-8.1c1.2-1.3 2-2.2 2.4-3 1-1.4 1.9-2.3 2.4-2.5.6-.3 1.5-.5 2.7-.5h2.8c1 0 1.9.3 2.6 1 .7.6 1 1.4 1 2.4a13 13 0 0 1-2.7 6c-1.6 2.4-4 4.6-7 6.8a44 44 0 0 1-40.2 5 32.4 32.4 0 0 1-11.4-8 39 39 0 0 1-7.5-12.4 55.8 55.8 0 0 1-3.7-22.7c0-2.8 0-5.1.2-6.8zm10.3 1.5h54.1v-.7c0-4.1-.6-8-1.9-11.8-1.2-3.6-3-6.8-5.3-9.6a24.2 24.2 0 0 0-8.6-6.3 27.5 27.5 0 0 0-11.4-2.3 24.6 24.6 0 0 0-19.8 8.7c-2.3 2.7-4 5.9-5.3 9.5a38.2 38.2 0 0 0-1.8 11.8v.7zm114.5-27.2c3-4 6.7-7.2 11-9.7a35 35 0 0 1 17.5-3.7c5.8 0 10.8 1 15.2 2.9a30 30 0 0 1 10.7 8c3 3.4 5.1 7.4 6.6 12 1.5 4.7 2.2 9.7 2.2 15.2v48.3c0 2.5-1.2 3.7-3.7 3.7h-3c-2.4 0-3.7-1.2-3.7-3.7v-47.5c0-9-2.2-16.1-6.6-21.3-4.4-5.2-10.9-7.7-19.4-7.7-8.1 0-14.7 2.5-19.5 7.6a29.8 29.8 0 0 0-7.3 21.4v47.5c0 2.5-1.3 3.7-3.8 3.7h-2.9c-2.5 0-3.7-1.2-3.7-3.7V91c0-2.5 1.2-3.7 3.7-3.7h3c2.4 0 3.7 1.2 3.7 3.7v40.3zm164.5 76.7c-2.5 0-3.7-1.2-3.7-3.7v-8a27 27 0 0 1-10 9 39.9 39.9 0 0 1-20.1 4.4 34.6 34.6 0 0 1-21.3-7.3c-2.8-2.3-5-5-6.7-8-1.6-3-2.4-6.4-2.4-10 0-3.9.8-7.3 2.4-10.4 1.7-3 4-5.8 7-8 2.9-2.4 6.4-4.3 10.5-5.9 4.2-1.5 8.7-2.6 13.7-3.3l26.9-3.7v-6c0-6-1.9-10.8-5.5-14.2-3.7-3.4-9.6-5.1-17.6-5.1-6.4 0-11.3 1.2-14.7 3.6-3.5 2.5-5.7 5-6.6 8a6 6 0 0 1-1.6 2.7c-.6.5-1.4.8-2.5.8h-2.3c-1 0-2-.4-2.7-1.1a3.6 3.6 0 0 1-1-2.7c0-1.5.5-3.5 1.6-5.9 1.1-2.4 3-4.7 5.5-7a34.4 34.4 0 0 1 24.3-8.3c6.6 0 12.2 1 16.5 2.7a24.5 24.5 0 0 1 15.5 16.7c1 3.5 1.5 7 1.5 10.4v56.6c0 2.5-1.3 3.7-3.8 3.7h-2.9zm-32.1-8.2c3.8 0 7.5-.6 11-2a25.4 25.4 0 0 0 15.2-15.6 40 40 0 0 0 2.2-14v-5.8l-22 3.1c-18.8 2.6-28.2 8.6-28.2 18 0 2.9.7 5.3 2 7.3s3 3.8 5 5.1c2 1.4 4.4 2.4 7 3 2.6.6 5.2 1 7.8 1zm111.7 8.2c-1.8 0-3.2-.4-4.2-1.2-1-.8-1.7-1.8-2.3-3l-31.3-79a6 6 0 0 1-.3-1.8c0-1 .3-1.7 1-2.4s1.5-1 2.4-1h3.6c1.1 0 2 .3 2.5 1 .6.6 1 1.1 1.2 1.6l28.7 73.4 28.8-73.4c.2-.5.6-1 1.2-1.7.5-.6 1.4-.9 2.5-.9h3.6c.9 0 1.7.3 2.4 1 .6.7 1 1.5 1 2.4a6 6 0 0 1-.4 1.9l-31.2 78.8a8.4 8.4 0 0 1-2.3 3.1c-1 .8-2.4 1.2-4.2 1.2h-2.7zm90-110.3c0 1.1-.5 2-1.2 2.7a4 4 0 0 1-2.8 1h-6.5c-2.5 0-3.7-1.2-3.7-3.7v-6.5c0-1.1.3-2 1-2.8.7-.7 1.6-1.1 2.7-1.1h6.5a3.8 3.8 0 0 1 4 4v6.4zm-2 106.6c0 2.5-1.2 3.7-3.7 3.7h-2.9c-2.5 0-3.7-1.2-3.7-3.7v-81c0-2.5 1.2-3.7 3.7-3.7h2.9c2.5 0 3.7 1.2 3.7 3.7v81zm78.2-86.4c6.2 0 11.5 1 16.2 3a32.7 32.7 0 0 1 18.8 20.5 53.5 53.5 0 0 1 2.9 18.5 86.2 86.2 0 0 1-.1 11 53.5 53.5 0 0 1-2.8 15.3 32.7 32.7 0 0 1-18.8 20.5c-4.7 2-10 3-16.2 3-6 0-11.5-1-16.1-3a32.7 32.7 0 0 1-18.9-20.5 48.2 48.2 0 0 1-2.8-18.4 92 92 0 0 1 .1-11.1c.1-5.5 1-10.6 2.7-15.3a32.7 32.7 0 0 1 18.9-20.5c4.6-2 10-3 16.1-3zm27.4 39.6c-.3-9.7-3-17.1-8-22.2a26 26 0 0 0-19.4-7.5 26 26 0 0 0-19.3 7.5c-5 5-7.7 12.5-8 22.2a97.1 97.1 0 0 0 0 12.6c.3 9.7 3 17.1 8 22.2a26 26 0 0 0 19.3 7.5 26 26 0 0 0 19.4-7.5c5-5 7.7-12.5 8-22.2a97.1 97.1 0 0 0 0-12.6zm61.2-26.2c4-7.8 11.8-11.7 23.1-11.7h6.3c2.5 0 3.8 1.2 3.8 3.7v2.4c0 2.5-1.3 3.8-3.8 3.8h-7.3c-6.8 0-12.2 2-16.1 6-4 3.9-6 9.3-6 16v52.8c0 1-.4 2-1.1 2.7a4 4 0 0 1-2.8 1h-2.7c-2.5 0-3.8-1.2-3.8-3.7v-80.8c0-1.1.4-2 1-2.8.7-.7 1.6-1.1 2.8-1.1h2.7a3.8 3.8 0 0 1 4 4v7.7z"/></g></svg>